<svg width="14" height="10" viewBox="0 0 14 10" fill="none" xmlns="http://www.w3.org/2000/svg">
<path fill-rule="evenodd" clip-rule="evenodd" d="M0 4.9999C0 4.86729 0.0526784 4.74011 0.146447 4.64635C0.240215 4.55258 0.367392 4.4999 0.5 4.4999H12.293L9.146 1.3539C9.05211 1.26001 8.99937 1.13267 8.99937 0.999899C8.99937 0.867123 9.05211 0.739786 9.146 0.645899C9.23989 0.552012 9.36722 0.499268 9.5 0.499268C9.63278 0.499268 9.76011 0.552012 9.854 0.645899L13.854 4.6459C13.9006 4.69234 13.9375 4.74752 13.9627 4.80827C13.9879 4.86901 14.0009 4.93413 14.0009 4.9999C14.0009 5.06567 13.9879 5.13079 13.9627 5.19153C13.9375 5.25228 13.9006 5.30745 13.854 5.3539L9.854 9.3539C9.76011 9.44779 9.63278 9.50053 9.5 9.50053C9.36722 9.50053 9.23989 9.44779 9.146 9.3539C9.05211 9.26001 8.99937 9.13267 8.99937 8.9999C8.99937 8.86712 9.05211 8.73979 9.146 8.6459L12.293 5.4999H0.5C0.367392 5.4999 0.240215 5.44722 0.146447 5.35345C0.0526784 5.25968 0 5.13251 0 4.9999Z" fill="#5A5A5B"/>
</svg>
